HIERARCHY
ROOT joint_Root
{
	OFFSET 0.0 0.0 0.0
	CHANNELS 6 Xposition Yposition Zposition Zrotation Xrotation Yrotation 
	JOINT Hips
	{
		OFFSET -0.726466 93.3139 -2.00062
		CHANNELS 6 Xposition Yposition Zposition Zrotation Xrotation Yrotation 
		JOINT Spine
		{
			OFFSET 15.7357 0.0 0.0
			CHANNELS 6 Xposition Yposition Zposition Zrotation Xrotation Yrotation 
			JOINT Chest
			{
				OFFSET 8.98455 -0.406207 0.0
				CHANNELS 6 Xposition Yposition Zposition Zrotation Xrotation Yrotation 
				JOINT Neck
				{
					OFFSET 16.3773 0.0 0.0
					CHANNELS 6 Xposition Yposition Zposition Zrotation Xrotation Yrotation 
					JOINT Head
					{
						OFFSET 6.45672 0.0 0.0
						CHANNELS 6 Xposition Yposition Zposition Zrotation Xrotation Yrotation 
						End Site
						{
							OFFSET 0.0 0.0 0.0
						}
					}
				}
				JOINT Shoulder_L
				{
					OFFSET 12.9942 -0.242716 4.98039
					CHANNELS 6 Xposition Yposition Zposition Zrotation Xrotation Yrotation 
					JOINT UpperArm_L
					{
						OFFSET 5.34809 0.0 0.0
						CHANNELS 6 Xposition Yposition Zposition Zrotation Xrotation Yrotation 
						JOINT LowerArm_L
						{
							OFFSET 24.3286 1.87007e-05 0.0
							CHANNELS 6 Xposition Yposition Zposition Zrotation Xrotation Yrotation 
							JOINT Hand_L
							{
								OFFSET 22.2916 0.0 0.0
								CHANNELS 6 Xposition Yposition Zposition Zrotation Xrotation Yrotation 
								End Site
								{
									OFFSET 0.0 0.0 0.0
								}
							}
						}
					}
				}
				JOINT Shoulder_R
				{
					OFFSET 12.9945 -0.242716 -4.98039
					CHANNELS 6 Xposition Yposition Zposition Zrotation Xrotation Yrotation 
					JOINT UpperArm_R
					{
						OFFSET -5.34813 0.0 0.0
						CHANNELS 6 Xposition Yposition Zposition Zrotation Xrotation Yrotation 
						JOINT LowerArm_R
						{
							OFFSET -24.3289 0.000322201 0.0
							CHANNELS 6 Xposition Yposition Zposition Zrotation Xrotation Yrotation 
							JOINT Hand_R
							{
								OFFSET -22.2915 -0.000108084 0.0
								CHANNELS 6 Xposition Yposition Zposition Zrotation Xrotation Yrotation 
								End Site
								{
									OFFSET 0.0 0.0 0.0
								}
							}
						}
					}
				}
			}
		}
		JOINT UpperLeg_L
		{
			OFFSET -2.19248 -6.46944 0.0
			CHANNELS 6 Xposition Yposition Zposition Zrotation Xrotation Yrotation 
			JOINT LowerLeg_L
			{
				OFFSET 39.0811 0.0 -1.23785e-05
				CHANNELS 6 Xposition Yposition Zposition Zrotation Xrotation Yrotation 
				JOINT Foot_L
				{
					OFFSET 40.9854 0.0 -1.26872e-05
					CHANNELS 6 Xposition Yposition Zposition Zrotation Xrotation Yrotation 
					JOINT Toes_L
					{
						OFFSET 11.7543 0.0 0.0
						CHANNELS 6 Xposition Yposition Zposition Zrotation Xrotation Yrotation 
						End Site
						{
							OFFSET 0.0 0.0 0.0
						}
					}
				}
			}
		}
		JOINT UpperLeg_R
		{
			OFFSET -2.19251 6.46944 0.0
			CHANNELS 6 Xposition Yposition Zposition Zrotation Xrotation Yrotation 
			JOINT LowerLeg_R
			{
				OFFSET -39.0811 -0.00228153 -0.0401928
				CHANNELS 6 Xposition Yposition Zposition Zrotation Xrotation Yrotation 
				JOINT Foot_R
				{
					OFFSET -40.9854 0.0 0.0
					CHANNELS 6 Xposition Yposition Zposition Zrotation Xrotation Yrotation 
					JOINT Toes_R
					{
						OFFSET -11.7543 0.0 0.0
						CHANNELS 6 Xposition Yposition Zposition Zrotation Xrotation Yrotation 
						End Site
						{
							OFFSET 0.0 0.0 0.0
						}
					}
				}
			}
		}
	}
}
MOTION
Frames:	7
Frame Time:	0.0333333
0.000000 0.000000 0.000000 0.000000 0.000000 -0.000000 -0.459321 92.191800 0.495767 88.132100 -0.032016 4.566730 15.735700 0.000005 -0.000001 83.931800 85.638300 -83.377600 8.984550 -0.406207 -0.000000 0.913455 -0.954937 1.115300 16.377300 -0.000001 -0.000001 1.514520 -2.690650 0.255882 6.456720 -0.000001 -0.000000 6.187130 -3.354510 -1.184510 12.994200 -0.242716 4.980390 -89.633900 -1.114730 -71.817400 5.348090 -0.000007 -0.000001 -67.151700 42.637500 -15.837200 24.328600 0.000019 0.000005 0.564635 1.347820 -22.722300 22.291600 -0.000001 0.000005 6.876550 5.413600 -3.380480 12.994500 -0.242716 -4.980390 88.521000 4.754420 -72.697700 -5.348130 -0.000001 -0.000004 -64.747500 42.246400 -16.572900 -24.328900 0.000322 -0.000009 1.570110 4.658320 -18.663100 -22.291500 -0.000108 -0.000004 8.786810 5.285670 0.471068 -2.192480 -6.469440 -0.000000 -175.388000 -7.936570 -1.639130 39.081100 -0.000007 -0.000012 -0.110542 0.258915 23.119800 40.985400 -0.000006 -0.000013 -0.057557 3.853110 -67.081200 11.754300 -0.000000 0.000003 -0.000069 -0.000750 -16.606500 -2.192510 6.469440 -0.000001 178.909000 15.885400 -178.403000 -39.081100 -0.002282 -0.040193 -0.055790 0.169602 19.215500 -40.985400 0.000008 0.000006 2.550640 8.047280 -66.464000 -11.754300 -0.000006 -0.000006 -0.007795 -0.086352 -20.089200
0.000000 0.000000 0.000000 0.000000 0.000000 -0.000000 -0.455589 92.197800 0.477155 88.132100 -0.047687 4.557870 15.735700 0.000005 -0.000001 83.978900 85.621100 -83.435600 8.984550 -0.406207 -0.000000 0.948410 -0.950603 1.093660 16.377300 -0.000001 -0.000001 1.418260 -2.722180 0.314378 6.456720 -0.000001 -0.000000 6.097960 -3.403430 -1.111900 12.994200 -0.242716 4.980390 -89.528700 -1.424860 -71.696100 5.348090 -0.000007 -0.000001 -67.014000 40.839100 -16.299800 24.328600 0.000019 0.000005 1.494860 3.346520 -24.078800 22.291600 -0.000001 0.000005 5.663690 5.391230 -2.651580 12.994500 -0.242716 -4.980390 88.541400 4.617670 -72.448800 -5.348130 -0.000001 -0.000004 -62.402200 43.347300 -18.342400 -24.328900 0.000322 -0.000009 1.410850 3.785030 -20.475500 -22.291500 -0.000108 -0.000004 8.544110 5.279300 0.645257 -2.192480 -6.469440 -0.000000 -175.392000 -7.928330 -1.631800 39.081100 -0.000007 -0.000012 -0.111427 0.261476 23.081100 40.985400 -0.000006 -0.000013 -0.063040 3.828240 -67.058200 11.754300 -0.000000 0.000003 -0.000068 -0.000737 -16.606000 -2.192510 6.469440 -0.000001 178.910000 15.849500 -178.404000 -39.081100 -0.002282 -0.040193 -0.056408 0.171868 19.164200 -40.985400 0.000008 0.000006 2.463660 8.058060 -66.407800 -11.754300 -0.000006 -0.000006 -0.007543 -0.084264 -20.004000
0.000000 0.000000 0.000000 0.000000 0.000000 -0.000000 -0.448003 92.207200 0.400864 88.095300 -0.055720 4.556030 15.735700 0.000005 -0.000001 83.707700 85.602400 -83.145300 8.984550 -0.406207 -0.000000 0.981522 -0.996859 1.132440 16.377300 -0.000001 -0.000001 1.512820 -2.740890 0.312172 6.456720 -0.000001 -0.000000 5.943800 -3.446310 -1.056730 12.994200 -0.242716 4.980390 -89.496500 -1.502680 -71.471400 5.348090 -0.000007 -0.000001 -65.548700 37.817000 -17.634700 24.328600 0.000019 0.000005 2.145510 4.218610 -26.989700 22.291600 -0.000001 0.000005 5.096970 5.367310 -1.904240 12.994500 -0.242716 -4.980390 88.554500 4.488130 -72.126600 -5.348130 -0.000001 -0.000004 -58.626300 42.893300 -21.254600 -24.328900 0.000322 -0.000009 1.984590 4.559920 -23.554600 -22.291500 -0.000108 -0.000004 8.133040 5.292680 0.275880 -2.192480 -6.469440 -0.000000 -175.381000 -7.888820 -1.710500 39.081100 -0.000007 -0.000012 -0.111341 0.260974 23.104900 40.985400 -0.000006 -0.000013 -0.068511 3.746580 -67.007100 11.754300 -0.000000 0.000003 -0.000069 -0.000750 -16.606500 -2.192510 6.469440 -0.000001 179.000000 15.777500 -178.479000 -39.081100 -0.002282 -0.040193 -0.050923 0.155959 19.178700 -40.985400 0.000008 0.000006 2.659750 7.937890 -66.388600 -11.754300 -0.000006 -0.000006 -0.008017 -0.088175 -20.163700
0.000000 0.000000 0.000000 0.000000 0.000000 -0.000000 -0.431463 92.205100 0.278802 88.108100 -0.053224 4.730280 15.735700 0.000005 -0.000001 83.640100 85.553500 -83.073300 8.984550 -0.406207 -0.000000 1.077690 -1.017760 1.142380 16.377300 -0.000001 -0.000001 1.801970 -2.745880 0.315815 6.456720 -0.000001 -0.000000 5.908010 -3.508880 -1.070320 12.994200 -0.242716 4.980390 -89.562200 -1.287820 -71.219800 5.348090 -0.000007 -0.000001 -61.808800 34.175800 -20.713400 24.328600 0.000019 0.000005 2.467380 4.138440 -30.833200 22.291600 -0.000001 0.000005 5.663840 5.373500 -2.094580 12.994500 -0.242716 -4.980390 88.593800 4.267440 -71.743100 -5.348130 -0.000001 -0.000004 -54.208200 40.098200 -24.827000 -24.328900 0.000322 -0.000009 2.445580 4.682080 -27.634100 -22.291500 -0.000108 -0.000004 8.469220 5.295440 0.198065 -2.192480 -6.469440 -0.000000 -175.389000 -7.908710 -1.657440 39.081100 -0.000007 -0.000012 -0.110744 0.258583 23.184200 40.985400 -0.000006 -0.000013 -0.038689 3.782510 -66.966800 11.754300 -0.000000 0.000003 -0.000060 -0.000665 -16.603300 -2.192510 6.469440 -0.000001 178.960000 15.704700 -178.451000 -39.081100 -0.002282 -0.040193 -0.052431 0.159140 19.307700 -40.985400 0.000008 0.000006 2.647020 7.861070 -66.365600 -11.754300 -0.000006 -0.000006 -0.007805 -0.086432 -20.092500
0.000000 0.000000 0.000000 0.000000 0.000000 -0.000000 -0.411417 92.197900 0.158613 88.123700 -0.072190 4.941290 15.735700 0.000005 -0.000001 83.568900 85.544500 -83.009400 8.984550 -0.406207 -0.000000 1.094300 -1.030230 1.127850 16.377300 -0.000001 -0.000001 2.284640 -2.722220 0.348694 6.456720 -0.000001 -0.000000 6.131480 -3.451060 -1.070600 12.994200 -0.242716 4.980390 -89.556100 -1.294870 -71.074400 5.348090 -0.000007 -0.000001 -57.673600 28.910100 -24.559300 24.328600 0.000019 0.000005 3.434550 4.886060 -35.162000 22.291600 -0.000001 0.000005 7.296640 5.384590 -2.441150 12.994500 -0.242716 -4.980390 88.698000 3.868030 -71.380500 -5.348130 -0.000001 -0.000004 -49.650900 35.368400 -28.953500 -24.328900 0.000322 -0.000009 2.647020 4.244310 -32.001800 -22.291500 -0.000108 -0.000004 9.455650 5.286320 0.453067 -2.192480 -6.469440 -0.000000 -175.392000 -7.983140 -1.580570 39.081100 -0.000007 -0.000012 -0.108837 0.252765 23.296100 40.985400 -0.000006 -0.000013 -0.002288 3.828060 -66.943300 11.754300 -0.000000 0.000003 -0.000079 -0.000837 -16.609800 -2.192510 6.469440 -0.000001 178.865000 15.634700 -178.369000 -39.081100 -0.002282 -0.040193 -0.058859 0.176534 19.404100 -40.985400 0.000008 0.000006 2.342280 7.901040 -66.276300 -11.754300 -0.000006 -0.000006 -0.007528 -0.084131 -19.998500
0.000000 0.000000 0.000000 0.000000 0.000000 -0.000000 -0.398071 92.187200 0.078771 88.113100 -0.135793 5.216750 15.735700 0.000005 -0.000001 83.450100 85.545100 -82.891900 8.984550 -0.406207 -0.000000 1.091240 -1.048410 1.125510 16.377300 -0.000001 -0.000001 2.792990 -2.627360 0.254946 6.456720 -0.000001 -0.000000 6.706490 -3.322640 -0.913734 12.994200 -0.242716 4.980390 -89.406300 -1.741770 -71.172700 5.348090 -0.000007 -0.000001 -54.323100 22.088600 -28.384600 24.328600 0.000019 0.000005 3.996770 4.835690 -39.656900 22.291600 -0.000001 0.000005 8.900940 5.395030 -2.773320 12.994500 -0.242716 -4.980390 88.833400 3.406940 -71.085000 -5.348130 -0.000001 -0.000004 -45.382300 28.873000 -33.424500 -24.328900 0.000322 -0.000009 3.039960 4.173840 -36.126900 -22.291500 -0.000108 -0.000004 10.622000 5.280900 0.602206 -2.192480 -6.469440 -0.000000 -175.337000 -8.100440 -1.407830 39.081100 -0.000007 -0.000012 -0.110194 0.254415 23.418800 40.985400 -0.000006 -0.000013 0.029072 3.901610 -66.956400 11.754300 -0.000000 0.000003 -0.000063 -0.000690 -16.604200 -2.192510 6.469440 -0.000001 178.785000 15.617900 -178.193000 -39.081100 -0.002282 -0.040193 -0.063658 0.189099 19.504600 -40.985400 0.000008 0.000006 2.182010 7.949950 -66.238400 -11.754300 -0.000006 -0.000006 -0.007877 -0.087028 -20.116800
0.000000 0.000000 0.000000 0.000000 0.000000 -0.000000 -0.374469 92.180800 -0.002449 88.088700 -0.260423 5.419900 15.735700 0.000005 -0.000001 83.138500 85.586600 -82.557600 8.984550 -0.406207 -0.000000 1.003550 -1.088370 1.170420 16.377300 -0.000001 -0.000001 3.269290 -2.485410 0.173108 6.456720 -0.000001 -0.000000 7.360540 -3.083120 -0.924806 12.994200 -0.242716 4.980390 -89.215800 -2.306470 -71.215400 5.348090 -0.000007 -0.000001 -51.473600 14.397300 -32.296800 24.328600 0.000019 0.000005 3.894500 4.004120 -44.274600 22.291600 -0.000001 0.000005 10.146400 5.407350 -3.177300 12.994500 -0.242716 -4.980390 88.992600 2.901610 -70.844600 -5.348130 -0.000001 -0.000004 -41.598500 21.225400 -38.212900 -24.328900 0.000322 -0.000009 2.959500 3.602640 -39.459400 -22.291500 -0.000108 -0.000004 12.207100 5.272470 0.827752 -2.192480 -6.469440 -0.000000 -175.309000 -8.102940 -1.289010 39.081100 -0.000007 -0.000012 -0.110119 0.253042 23.517700 40.985400 -0.000006 -0.000013 0.031898 3.815730 -66.965600 11.754300 -0.000000 0.000003 -0.000065 -0.000712 -16.605100 -2.192510 6.469440 -0.000001 178.750000 15.506200 -178.091000 -39.081100 -0.002282 -0.040193 -0.065649 0.193748 19.594900 -40.985400 0.000008 0.000006 2.151920 7.976020 -66.216200 -11.754300 -0.000006 -0.000006 -0.007479 -0.083726 -19.982000
